HIERARCHY
ROOT Hips
{
	OFFSET -0.001795 -0.223333 0.028219
	CHANNELS 6 Xposition Yposition Zposition Zrotation Yrotation Xrotation 
	JOINT LeftUpLeg
	{
		OFFSET 0.069520 -0.091406 -0.006815
		CHANNELS 3 Zrotation Yrotation Xrotation
		JOINT LeftLeg
		{
			OFFSET 0.034277 -0.375199 -0.004496
			CHANNELS 3 Zrotation Yrotation Xrotation
			JOINT LeftFoot
			{
				OFFSET -0.013596 -0.397961 -0.043693
				CHANNELS 3 Zrotation Yrotation Xrotation
				JOINT LeftToe
				{
					OFFSET 0.026358 -0.055791 0.119288
					CHANNELS 3 Zrotation Yrotation Xrotation
					End Site
					{
						OFFSET 0.000000 0.000000 0.000000
					}
				}
			}
		}
	}
	JOINT RightUpLeg
	{
		OFFSET -0.067670 -0.090522 -0.004320
		CHANNELS 3 Zrotation Yrotation Xrotation
		JOINT RightLeg
		{
			OFFSET -0.038290 -0.382569 -0.008850
			CHANNELS 3 Zrotation Yrotation Xrotation
			JOINT RightFoot
			{
				OFFSET 0.015774 -0.398415 -0.042312
				CHANNELS 3 Zrotation Yrotation Xrotation
				JOINT RightToe
				{
					OFFSET -0.025372 -0.048144 0.123348
					CHANNELS 3 Zrotation Yrotation Xrotation
					End Site
					{
						OFFSET 0.000000 0.000000 0.000000
					}
				}
			}
		}
	}
	JOINT Spine
	{
		OFFSET -0.002533 0.108963 -0.026696
		CHANNELS 3 Zrotation Yrotation Xrotation
		JOINT Spine1
		{
			OFFSET 0.005487 0.135180 0.001092
			CHANNELS 3 Zrotation Yrotation Xrotation
			JOINT Spine2
			{
				OFFSET 0.001457 0.052922 0.025425
				CHANNELS 3 Zrotation Yrotation Xrotation
				JOINT Neck
				{
					OFFSET -0.002778 0.213870 -0.042857
					CHANNELS 3 Zrotation Yrotation Xrotation
					JOINT Head
					{
						OFFSET 0.005152 0.064970 0.051349
						CHANNELS 3 Zrotation Yrotation Xrotation
						End Site
						{
							OFFSET 0.000000 0.000000 0.000000
						}
					}
				}
				JOINT LeftShoulder
				{
					OFFSET 0.078845 0.121749 -0.034090
					CHANNELS 3 Zrotation Yrotation Xrotation
					JOINT LeftArm
					{
						OFFSET 0.090977 0.030469 -0.008868
						CHANNELS 3 Zrotation Yrotation Xrotation
						JOINT LeftForeArm
						{
							OFFSET 0.259612 -0.012772 -0.027456
							CHANNELS 3 Zrotation Yrotation Xrotation
							JOINT LeftHand
							{
								OFFSET 0.249234 0.008986 -0.001171
								CHANNELS 3 Zrotation Yrotation Xrotation
								End Site
								{
									OFFSET 0.000000 0.000000 0.000000
								}
							}
						}
					}
				}
				JOINT RightShoulder
				{
					OFFSET -0.081759 0.118833 -0.038615
					CHANNELS 3 Zrotation Yrotation Xrotation
					JOINT RightArm
					{
						OFFSET -0.096012 0.032551 -0.009143
						CHANNELS 3 Zrotation Yrotation Xrotation
						JOINT RightForeArm
						{
							OFFSET -0.253742 -0.013329 -0.021401
							CHANNELS 3 Zrotation Yrotation Xrotation
							JOINT RightHand
							{
								OFFSET -0.255298 0.007772 -0.005559
								CHANNELS 3 Zrotation Yrotation Xrotation
								End Site
								{
									OFFSET 0.000000 0.000000 0.000000
								}
							}
						}
					}
				}
			}
		}
	}
}
MOTION
Frames: 6
Frame Time: 0.050000
-0.099183 0.913404 -0.169720 -1.192989 -18.794331 15.407064 16.811103 4.381552 -32.509721 -2.703294 1.288094 21.383353 4.985229 11.073101 20.602408 0.000000 0.000000 0.000000 -5.686777 5.267704 -40.770778 -0.398862 3.114056 30.663997 5.688871 9.498700 6.232661 0.000000 0.000000 0.000000 2.210548 0.130534 36.844338 4.800338 -1.867153 -4.926018 -9.230159 3.446111 3.227092 16.167661 -5.930524 -26.931823 0.000000 0.000000 0.000000 -11.154848 -25.233745 11.630459 -34.794825 -29.369208 3.794006 4.147808 -66.029779 1.318336 0.000000 0.000000 0.000000 14.405838 14.488435 5.490630 44.126622 21.576215 3.532958 39.714166 74.314397 32.935938 0.000000 0.000000 0.000000 
-0.110867 0.913829 -0.179030 -0.840192 -18.334321 15.223333 17.402605 4.358628 -31.789618 -2.674545 1.142426 19.958990 4.221970 10.010448 20.020963 0.000000 0.000000 0.000000 -5.325969 5.246100 -40.561504 -0.047303 2.932537 30.571941 5.066740 9.279769 4.811715 0.000000 0.000000 0.000000 2.777744 -0.197713 36.152806 4.431217 -1.723728 -5.035197 -9.105510 3.035298 3.342111 15.628502 -5.704587 -26.987732 0.000000 0.000000 0.000000 -11.319211 -24.285192 11.249899 -35.153883 -28.321589 3.533496 4.769788 -68.438816 1.062756 0.000000 0.000000 0.000000 14.933125 14.058085 5.190607 44.365721 21.205109 3.446616 45.489949 74.457396 37.525740 0.000000 0.000000 0.000000 
-0.122252 0.913959 -0.188126 -0.377444 -18.017196 15.119780 17.766579 4.398325 -31.677072 -2.570008 1.043600 19.337752 3.803172 9.493625 20.332111 0.000000 0.000000 0.000000 -5.279912 5.234162 -40.721030 0.572944 2.735031 31.014180 4.431449 9.107009 3.286243 0.000000 0.000000 0.000000 3.041193 -0.397024 35.088128 3.999592 -1.547198 -5.503688 -8.767693 3.207234 4.312935 14.829780 -5.165270 -28.099816 0.000000 0.000000 0.000000 -11.283114 -23.273970 10.742989 -34.972135 -27.474242 3.189296 6.702249 -71.480552 -0.200508 0.000000 0.000000 0.000000 15.199391 13.681347 5.011541 44.126906 21.009289 3.265227 48.760310 74.650604 40.371099 0.000000 0.000000 0.000000 
-0.133006 0.913822 -0.196958 -0.131431 -17.308363 14.946838 18.233642 4.419336 -31.634553 -2.652363 0.999062 18.905786 3.765728 9.532255 20.228952 0.000000 0.000000 0.000000 -5.145536 5.170292 -40.778510 1.283674 2.427763 31.186481 4.044720 8.749571 2.591402 0.000000 0.000000 0.000000 3.745503 -0.779323 34.239161 3.647841 -1.423755 -5.061437 -8.595689 3.271069 3.799446 14.211961 -4.932486 -27.590266 0.000000 0.000000 0.000000 -12.057033 -22.497817 10.408616 -34.342914 -25.844793 2.662483 5.962143 -74.550855 0.251322 0.000000 0.000000 0.000000 15.468596 13.570529 5.022539 43.543763 20.042709 2.906370 54.636862 74.802962 45.433785 0.000000 0.000000 0.000000 
-0.142503 0.913449 -0.205253 0.434653 -16.550162 14.678971 18.265883 4.372440 -32.078238 -2.735265 1.031659 19.713560 3.701720 9.578215 20.264355 0.000000 0.000000 0.000000 -5.130988 5.058312 -40.800906 1.851112 2.198186 31.632380 3.164592 7.540839 1.329182 0.000000 0.000000 0.000000 4.532637 -1.154149 33.804193 3.130341 -1.202515 -6.049891 -8.369963 4.101798 4.937442 13.874518 -4.523164 -28.774272 0.000000 0.000000 0.000000 -12.066495 -22.530764 10.245975 -34.308849 -25.256045 2.442993 4.605305 -76.294984 1.095700 0.000000 0.000000 0.000000 15.034301 13.263062 5.099730 43.121573 20.573997 2.891015 53.029450 75.009049 44.679772 0.000000 0.000000 0.000000 
-0.149798 0.913244 -0.212537 0.953557 -15.667474 14.179056 18.010335 4.166047 -32.296647 -2.723524 1.024257 20.505757 3.374300 9.248173 20.070235 0.000000 0.000000 0.000000 -5.094941 4.869196 -40.454104 2.458528 1.880131 31.532801 2.323679 5.656701 0.815287 0.000000 0.000000 0.000000 5.063902 -1.441192 33.308099 2.863229 -1.107200 -5.715329 -8.267528 4.732372 4.651755 13.466249 -4.076589 -29.535108 0.000000 0.000000 0.000000 -13.107730 -22.408827 10.109395 -34.018570 -24.084175 2.132124 2.348189 -76.965928 2.556375 0.000000 0.000000 0.000000 14.758638 12.997724 5.189706 42.277198 20.830850 2.859763 50.209619 74.618210 42.419368 0.000000 0.000000 0.000000 
